<?xml version="1.0" encoding="utf-8"?>
<!-- Generator: Adobe Illustrator 16.0.0, SVG Export Plug-In . SVG Version: 6.00 Build 0)  -->
<!DOCTYPE svg PUBLIC "-//W3C//DTD SVG 1.1//EN" "http://www.w3.org/Graphics/SVG/1.1/DTD/svg11.dtd">
<svg version="1.1" id="Layer_1" xmlns="http://www.w3.org/2000/svg" xmlns:xlink="http://www.w3.org/1999/xlink" x="0px" y="0px"
	 width="960px" height="660px" viewBox="0 0 960 660" enable-background="new 0 0 960 660" xml:space="preserve">
<path fill-rule="evenodd" clip-rule="evenodd" fill="#232821" d="M410.668,541.998c-0.988,0.625-1.975,1.249-2.963,1.873
	C407.107,540.737,409.605,542.503,410.668,541.998z"/>
<g>
	<path fill="#232821" d="M209.152,323.446h27.589v53.429h23.158v25.254h-50.747V323.446z"/>
	<path fill="#232821" d="M292.65,402.129h-29.2l26.381-78.683h30.509l27.085,78.683h-29.2l-2.517-9.809h-20.842L292.65,402.129z
		 M310.875,373.642l-3.222-13.88c-0.806-3.34-1.309-6.783-1.813-10.122h-1.007l-5.034,24.002H310.875z"/>
	<path fill="#232821" d="M388.635,373.954l1.41,1.148c4.934,3.965,10.874,7.2,17.217,7.2c2.718,0,7.048-1.149,7.048-4.696
		c0-3.549-3.625-3.862-6.142-4.383l-5.538-1.043c-10.773-1.983-19.836-8.559-19.836-20.873c0-18.678,16.413-29.114,32.925-29.114
		c8.659,0,16.613,2.192,24.064,6.888l-7.451,20.14c-4.732-3.339-10.068-5.948-16.009-5.948c-2.416,0-5.94,0.939-5.94,4.175
		c0,2.922,3.423,3.339,5.538,3.859l6.243,1.463c11.68,2.713,20.138,9.183,20.138,22.541c0,18.783-16.513,28.071-32.925,28.071
		c-9.566,0-20.642-2.713-29.2-7.202L388.635,373.954z"/>
	<path fill="#232821" d="M450.899,323.446h36.768c18.647,0,32.423,9.392,32.423,28.907c0,16.07-10.172,26.089-26.383,26.089h-14.834
		v23.688h-27.973V323.446z M478.873,358.614h2.861c5.086,0,10.596-0.835,10.596-7.2c0-6.157-5.934-6.471-10.702-6.471h-2.754
		V358.614z"/>
	<path fill="#232821" d="M613.484,362.997c0,25.254-19.721,40.386-43.977,40.386c-24.254,0-43.975-15.132-43.975-40.386
		c0-24.731,19.826-40.803,43.975-40.803C593.658,322.194,613.484,338.266,613.484,362.997z M554.639,363.414
		c0,8.974,6.117,15.131,14.869,15.131c8.754,0,14.869-6.157,14.869-15.131c0-8.349-5.693-15.34-14.869-15.34
		C560.334,348.074,554.639,355.065,554.639,363.414z"/>
	<path fill="#232821" d="M626.242,373.954l1.449,1.148c5.074,3.965,11.184,7.2,17.709,7.2c2.795,0,7.248-1.149,7.248-4.696
		c0-3.549-3.729-3.862-6.316-4.383l-5.695-1.043c-11.082-1.983-20.4-8.559-20.4-20.873c0-18.678,16.879-29.114,33.863-29.114
		c8.906,0,17.088,2.192,24.752,6.888l-7.664,20.14c-4.869-3.339-10.357-5.948-16.469-5.948c-2.484,0-6.109,0.939-6.109,4.175
		c0,2.922,3.521,3.339,5.697,3.859l6.422,1.463c12.012,2.713,20.711,9.183,20.711,22.541c0,18.783-16.984,28.071-33.865,28.071
		c-9.838,0-21.23-2.713-30.031-7.202L626.242,373.954z"/>
	<path fill="#232821" d="M716.619,402.129H687.42l26.381-78.683h30.51l27.084,78.683h-29.199l-2.518-9.809h-20.842L716.619,402.129z
		 M734.846,373.642l-3.223-13.88c-0.807-3.34-1.309-6.783-1.813-10.122h-1.008l-5.035,24.002H734.846z"/>
	<g>
		<path fill="#232821" d="M374.156,455.604h-4.174v-31.643h11.814c3.694,0,6.42,0.954,8.178,2.862
			c1.757,1.909,2.636,4.085,2.636,6.526c0,2.72-0.956,4.969-2.868,6.745c-1.913,1.778-4.415,2.667-7.506,2.667h-8.08V455.604z
			 M374.156,439.469h7.665c1.97,0,3.556-0.56,4.761-1.681c1.204-1.12,1.806-2.601,1.806-4.438c0-1.577-0.537-2.983-1.611-4.22
			c-1.074-1.235-2.628-1.854-4.662-1.854h-7.958V439.469z"/>
		<path fill="#232821" d="M421.902,455.604h-4.375l-6.144-13.7h-9.546v13.7h-3.906v-31.643h13.132c3.564,0,6.204,0.924,7.921,2.771
			c1.717,1.847,2.575,3.867,2.575,6.061c0,1.686-0.48,3.301-1.44,4.846c-0.96,1.546-2.547,2.65-4.76,3.314L421.902,455.604z
			 M401.838,438.681h8.714c2.294,0,4.007-0.575,5.139-1.727c1.131-1.15,1.696-2.562,1.696-4.231c0-1.668-0.598-2.967-1.794-3.894
			c-1.196-0.928-2.706-1.392-4.528-1.392h-9.227V438.681z"/>
		<path fill="#232821" d="M439.405,456.253c-4.281,0-7.616-1.581-10.009-4.744c-2.392-3.163-3.588-7.04-3.588-11.635
			c0-4.794,1.253-8.753,3.759-11.877c2.505-3.124,5.826-4.687,9.959-4.687c4.117,0,7.42,1.536,9.911,4.605
			c2.489,3.07,3.734,6.94,3.734,11.611c0,4.484-1.208,8.394-3.625,11.727C447.13,454.587,443.749,456.253,439.405,456.253z
			 M439.502,453.029c2.913,0,5.191-1.26,6.835-3.78c1.643-2.521,2.465-5.771,2.465-9.745c0-4.084-0.85-7.263-2.551-9.536
			c-1.7-2.274-3.958-3.41-6.773-3.41c-2.848,0-5.11,1.229-6.786,3.688c-1.676,2.46-2.515,5.677-2.515,9.651
			c0,3.884,0.846,7.042,2.539,9.478C434.408,451.813,436.671,453.029,439.502,453.029z"/>
		<path fill="#232821" d="M483.977,455.604h-4.052l-17.233-27.585l0.048,2.086c0.05,0.788,0.074,1.452,0.074,1.993v23.506h-3.369
			v-31.643h5.224l16.11,25.786l-0.048-2.2c-0.033-0.865-0.049-1.63-0.049-2.294v-21.292h3.295V455.604z"/>
		<path fill="#232821" d="M503.798,456.253c-4.28,0-7.616-1.581-10.009-4.744s-3.588-7.04-3.588-11.635
			c0-4.794,1.254-8.753,3.76-11.877c2.505-3.124,5.825-4.687,9.959-4.687c4.117,0,7.42,1.536,9.91,4.605
			c2.49,3.07,3.734,6.94,3.734,11.611c0,4.484-1.207,8.394-3.625,11.727C511.523,454.587,508.143,456.253,503.798,456.253z
			 M503.896,453.029c2.913,0,5.19-1.26,6.835-3.78c1.643-2.521,2.465-5.771,2.465-9.745c0-4.084-0.85-7.263-2.551-9.536
			c-1.701-2.274-3.959-3.41-6.773-3.41c-2.848,0-5.111,1.229-6.786,3.688c-1.677,2.46-2.515,5.677-2.515,9.651
			c0,3.884,0.846,7.042,2.539,9.478C498.802,451.813,501.064,453.029,503.896,453.029z"/>
		<path fill="#232821" d="M545.27,423.961l-11.225,31.643h-4.033l-11.227-31.643h4.371l9.287,26.103l9.195-26.103H545.27z"/>
		<path fill="#232821" d="M553.789,455.604h-4.174v-31.643h4.174V455.604z"/>
		<path fill="#232821" d="M584.553,455.604h-4.264l-3.35-9.249h-12.365l-2.98,9.249h-3.49l10.828-31.643h4.721L584.553,455.604z
			 M576.049,443.387l-5.16-15.207l-5.154,15.207H576.049z"/>
		<path fill="#232821" d="M585.229,447.234l3.76-0.811c1.514,4.313,4.791,6.468,9.838,6.468c2.635,0,4.621-0.531,5.955-1.595
			c1.334-1.061,2.002-2.484,2.002-4.269c0-1.348-0.51-2.435-1.525-3.256c-1.018-0.821-2.191-1.389-3.525-1.697l-6.666-1.562
			c-1.725-0.418-3.137-0.925-4.236-1.521c-1.098-0.596-2.029-1.512-2.793-2.75c-0.766-1.238-1.148-2.654-1.148-4.248
			c0-2.647,1.051-4.755,3.148-6.325c2.1-1.571,4.793-2.358,8.08-2.358c6.055,0,10.033,2.604,11.938,7.813l-3.785,1.066
			c-0.438-1.854-1.473-3.257-3.1-4.209c-1.627-0.949-3.361-1.424-5.199-1.424c-1.822,0-3.445,0.458-4.869,1.374
			c-1.424,0.915-2.137,2.212-2.137,3.889c0,2.346,1.805,3.929,5.414,4.752l6.23,1.387c5.695,1.298,8.543,4.212,8.543,8.741
			c0,2.736-1.07,5.012-3.209,6.828c-2.141,1.816-5.154,2.725-9.045,2.725C591.998,456.253,587.441,453.247,585.229,447.234z"/>
	</g>
	<path fill="#232821" d="M529.813,223.333c0,0.178,0,1.427,0,8.557c0,9.508-13.311,11.409-19.016,11.409s-14.736-2.139-14.736-9.507
		c0-17.118,45.16-4.278,45.16-34.227c0-20.203-20.357-22.581-26.383-22.581c-16.895,0-23.115,3.208-25.487,9.27
		c-2.136-5.705-8.593-9.27-25.486-9.27c-6.026,0-26.384,2.377-26.384,22.581c0,29.949,45.162,17.109,45.162,34.227
		c0,7.368-9.034,9.507-14.738,9.507s-19.015-1.901-19.015-11.409c0-7.13,0-8.379,0-8.557h-13.548v8.795
		c0,20.679,23.115,24.245,29.532,24.245c5.584,0,20.655-0.005,24.477-9.87c3.821,9.865,18.894,9.87,24.478,9.87
		c6.416,0,29.531-3.565,29.531-24.245v-8.795H529.813z M496.292,197.94c0-3.167,5.476-5.669,5.728-5.9
		c0.1-0.091,2.547-2.222,12.818-2.222c1.961,0,6.15,0.464,9.406,2.201c2.557,1.366,4.141,3.104,4.141,7.544
		c0,5.068-1.33,6.996-17.143,10.428c-2.943,0.639-11.438,2.626-14.95,3.781V197.94z M482.409,213.773
		c-3.511-1.155-12.008-3.142-14.951-3.781c-15.813-3.432-17.143-5.36-17.143-10.428c0-4.44,1.585-6.179,4.142-7.544
		c3.255-1.737,7.444-2.201,9.407-2.201c10.271,0,12.718,2.13,12.817,2.222c0.253,0.23,5.728,2.733,5.728,5.9V213.773z"/>
</g>
</svg>
