<svg width="312" height="93" viewBox="0 0 312 93" fill="none" xmlns="http://www.w3.org/2000/svg">
<path d="M21.2363 17.544C23.0603 16.344 25.0523 15.456 27.2123 14.88C29.3723 14.304 31.5083 14.016 33.6203 14.016C35.7323 14.016 37.7003 14.16 39.5243 14.448C41.3963 14.688 43.2923 15.12 45.2123 15.744C47.1803 16.368 48.7883 17.328 50.0363 18.624C51.2843 19.92 51.9803 21.456 52.1243 23.232C52.1723 23.952 51.8843 24.504 51.2603 24.888C50.6843 25.224 50.0123 25.392 49.2443 25.392C48.5243 25.392 47.9723 25.224 47.5883 24.888C47.2523 24.504 46.9163 23.952 46.5803 23.232C44.7563 19.536 40.7723 17.688 34.6283 17.688C30.4523 17.688 27.0203 18.576 24.3323 20.352C21.6923 22.128 20.3723 24.72 20.3723 28.128C20.3723 30.048 20.9723 31.704 22.1723 33.096C23.3723 34.44 24.9323 35.496 26.8523 36.264C28.8203 37.032 30.9563 37.728 33.2603 38.352C35.6123 38.976 37.9403 39.672 40.2443 40.44C42.5963 41.208 44.7323 42.12 46.6523 43.176C48.6203 44.232 50.2043 45.72 51.4043 47.64C52.6043 49.512 53.2043 51.768 53.2043 54.408C53.2043 58.248 51.3083 61.512 47.5162 64.2C43.7723 66.888 39.0443 68.232 33.3323 68.232C28.9163 68.232 24.5963 67.296 20.3723 65.424C16.1483 63.552 14.0363 61.632 14.0363 59.664C14.0363 59.136 14.3483 58.656 14.9723 58.224C15.5963 57.744 16.1963 57.504 16.7723 57.504C17.3963 57.504 17.9723 57.696 18.5003 58.08C19.0283 58.416 19.6283 58.896 20.3003 59.52C20.9723 60.144 21.5723 60.624 22.1003 60.96C25.7483 63.264 29.8283 64.416 34.3403 64.416C37.5083 64.416 40.6043 63.456 43.6283 61.536C46.6523 59.568 48.1642 56.952 48.1642 53.688C48.1642 51.48 47.3483 49.656 45.7163 48.216C44.0843 46.728 42.0443 45.672 39.5963 45.048C37.1483 44.376 34.4843 43.632 31.6043 42.816C28.7723 42 26.1323 41.16 23.6843 40.296C21.2363 39.432 19.1963 38.04 17.5643 36.12C15.9323 34.2 15.1163 31.92 15.1163 29.28C15.1163 26.592 15.6683 24.264 16.7723 22.296C17.9243 20.28 19.4123 18.696 21.2363 17.544ZM58.9609 17.976C58.9609 15.672 67.2169 14.52 83.7289 14.52C87.5209 14.52 92.3929 14.688 98.3449 15.024C104.297 15.312 107.369 15.744 107.561 16.32C107.465 18.48 105.473 19.56 101.585 19.56C100.481 19.56 98.6329 19.44 96.0409 19.2C93.4489 18.96 91.2169 18.84 89.3449 18.84C87.5209 18.84 86.6089 19.248 86.6089 20.064C86.6089 30.384 86.3689 45.768 85.8889 66.216C84.8809 66.936 83.3929 67.296 81.4249 67.296C81.3769 65.184 81.3529 62.664 81.3529 59.736L81.7129 28.632C81.7129 24.888 81.6649 21.744 81.5689 19.2C80.5609 19.104 79.2409 19.056 77.6089 19.056C76.0249 19.056 73.5289 19.2 70.1209 19.488C66.7129 19.728 64.3129 19.848 62.9209 19.848C60.2809 19.848 58.9609 19.224 58.9609 17.976ZM117.031 16.176C118.567 15.168 119.911 14.88 121.063 15.312C121.639 15.504 121.855 16.032 121.711 16.896C120.271 26.4 119.551 32.952 119.551 36.552C119.551 40.104 119.743 43.2 120.127 45.84C120.559 48.432 121.255 51.168 122.215 54.048C123.223 56.88 124.783 59.184 126.895 60.96C129.007 62.688 131.575 63.552 134.599 63.552C138.823 63.552 142.519 60.984 145.687 55.848C148.903 50.664 150.511 44.448 150.511 37.2C150.511 29.904 148.807 22.776 145.399 15.816C146.407 14.952 147.295 14.52 148.063 14.52C148.879 14.52 149.503 14.592 149.935 14.736C153.775 20.256 155.695 27.432 155.695 36.264C155.695 43.512 153.823 50.448 150.079 57.072C148.255 60.192 145.855 62.76 142.879 64.776C139.903 66.744 136.783 67.728 133.519 67.728C130.303 67.728 127.567 67.056 125.311 65.712C123.103 64.32 121.351 62.592 120.055 60.528C118.807 58.416 117.775 55.968 116.959 53.184C115.567 48.384 114.871 43.128 114.871 37.416C114.871 28.968 115.591 21.888 117.031 16.176ZM181.871 66.432L175.895 66.648C172.535 66.648 170.351 66.192 169.343 65.28C168.719 64.8 168.407 64.128 168.407 63.264C168.407 57.84 168.599 50.736 168.983 41.952C169.367 33.12 169.559 26.256 169.559 21.36C169.559 19.392 171.383 17.808 175.031 16.608C178.679 15.408 182.591 14.808 186.767 14.808C194.591 14.808 201.071 17.016 206.207 21.432C211.391 25.848 213.983 31.584 213.983 38.64C213.983 42.192 213.359 45.48 212.111 48.504C210.911 51.528 209.279 54.144 207.215 56.352C205.151 58.512 202.751 60.36 200.015 61.896C194.543 64.92 188.495 66.432 181.871 66.432ZM208.871 40.368C208.871 34.176 206.759 28.992 202.535 24.816C198.359 20.592 192.935 18.48 186.263 18.48C182.999 18.48 179.111 19.56 174.599 21.72C174.599 25.608 174.407 31.44 174.023 39.216C173.639 46.944 173.447 52.296 173.447 55.272C173.447 58.2 173.471 60.288 173.519 61.536C176.207 62.064 179.087 62.328 182.159 62.328C189.935 62.328 196.319 60.432 201.311 56.64C206.351 52.848 208.871 47.424 208.871 40.368ZM232.691 15.312C232.211 37.008 231.947 53.952 231.899 66.144C231.179 66.912 230.531 67.296 229.955 67.296C229.427 67.296 228.971 67.176 228.587 66.936C227.483 66.216 226.931 64.872 226.931 62.904C227.027 39.816 227.195 26.304 227.435 22.368C227.675 18.432 228.035 16.152 228.515 15.528C228.995 14.904 229.571 14.592 230.243 14.592C230.915 14.592 231.731 14.832 232.691 15.312ZM289.077 22.44C291.573 24.36 293.565 26.88 295.053 30C296.589 33.072 297.357 36.672 297.357 40.8C297.357 44.928 296.517 48.792 294.837 52.392C293.157 55.992 290.973 58.848 288.285 60.96C282.765 65.28 276.645 67.44 269.925 67.44C263.253 67.44 257.541 65.28 252.789 60.96C248.037 56.592 245.661 50.64 245.661 43.104C245.661 38.784 246.357 34.896 247.749 31.44C249.189 27.984 251.109 25.2 253.509 23.088C258.501 18.672 264.405 16.464 271.221 16.464C277.941 16.464 283.893 18.456 289.077 22.44ZM250.413 43.248C250.413 49.44 252.165 54.384 255.669 58.08C259.221 61.776 263.925 63.624 269.781 63.624C276.549 63.624 281.973 61.56 286.053 57.432C290.181 53.256 292.245 48 292.245 41.664C292.245 35.28 290.181 30.192 286.053 26.4C281.925 22.608 276.909 20.712 271.005 20.712C265.101 20.712 260.181 22.656 256.245 26.544C252.357 30.384 250.413 35.952 250.413 43.248Z" fill="black"/>
<path d="M21.2363 17.544L22.8382 20.0805C22.8539 20.0705 22.8696 20.0605 22.8851 20.0502L21.2363 17.544ZM39.5243 14.448L39.0564 17.4113C39.0851 17.4158 39.1139 17.4199 39.1428 17.4236L39.5243 14.448ZM45.2123 15.744L44.285 18.5971C44.2918 18.5993 44.2987 18.6015 44.3055 18.6037L45.2123 15.744ZM52.1243 23.232L55.1176 23.0324C55.1167 23.0181 55.1156 23.0038 55.1144 22.9896L52.1243 23.232ZM51.2603 24.888L52.7719 27.4793C52.7922 27.4675 52.8125 27.4553 52.8325 27.443L51.2603 24.888ZM47.5883 24.888L45.3305 26.8635C45.4182 26.9637 45.5125 27.058 45.6127 27.1457L47.5883 24.888ZM46.5803 23.232L49.2988 21.9633C49.2896 21.9436 49.2801 21.9239 49.2705 21.9043L46.5803 23.232ZM24.3323 20.352L22.6785 17.849C22.6715 17.8536 22.6646 17.8582 22.6577 17.8628L24.3323 20.352ZM22.1723 33.096L19.9 35.0548C19.9114 35.068 19.9229 35.0811 19.9344 35.094L22.1723 33.096ZM26.8523 36.264L25.7381 39.0494C25.7459 39.0526 25.7538 39.0557 25.7616 39.0587L26.8523 36.264ZM33.2603 38.352L32.476 41.2477C32.481 41.249 32.486 41.2504 32.4909 41.2517L33.2603 38.352ZM40.2443 40.44L39.2956 43.286C39.3014 43.288 39.3072 43.2899 39.313 43.2918L40.2443 40.44ZM46.6523 43.176L45.2065 45.8046C45.2156 45.8096 45.2247 45.8146 45.2338 45.8195L46.6523 43.176ZM51.4043 47.64L48.8603 49.23C48.8663 49.2397 48.8724 49.2494 48.8786 49.259L51.4043 47.64ZM47.5162 64.2L45.7813 61.7525C45.7764 61.756 45.7715 61.7595 45.7666 61.763L47.5162 64.2ZM20.3723 65.424L21.5878 62.6813L20.3723 65.424ZM14.9723 58.224L16.6799 60.6906C16.7211 60.662 16.7616 60.6325 16.8014 60.6019L14.9723 58.224ZM18.5003 58.08L16.7357 60.5062C16.7859 60.5427 16.8373 60.5777 16.8896 60.611L18.5003 58.08ZM20.3003 59.52L18.2589 61.7184L18.2589 61.7184L20.3003 59.52ZM22.1003 60.96L20.4896 63.491L20.4983 63.4965L22.1003 60.96ZM43.6283 61.536L45.2363 64.0686C45.2458 64.0626 45.2552 64.0565 45.2646 64.0504L43.6283 61.536ZM45.7163 48.216L43.695 50.4329C43.707 50.4438 43.7192 50.4547 43.7314 50.4655L45.7163 48.216ZM39.5963 45.048L38.8021 47.941C38.8198 47.9458 38.8375 47.9505 38.8552 47.955L39.5963 45.048ZM31.6043 42.816L30.7736 45.6987L30.7864 45.7024L31.6043 42.816ZM23.6843 40.296L24.6827 37.467L24.6827 37.467L23.6843 40.296ZM17.5643 36.12L15.2784 38.0629L15.2784 38.0629L17.5643 36.12ZM16.7723 22.296L14.1675 20.8076C14.1636 20.8145 14.1597 20.8213 14.1558 20.8282L16.7723 22.296ZM22.8851 20.0502C24.4337 19.0315 26.1288 18.2737 27.9852 17.7787L26.4393 11.9813C23.9757 12.6383 21.6868 13.6565 19.5874 15.0377L22.8851 20.0502ZM27.9852 17.7787C29.9078 17.266 31.784 17.016 33.6203 17.016V11.016C31.2325 11.016 28.8367 11.342 26.4393 11.9813L27.9852 17.7787ZM33.6203 17.016C35.5974 17.016 37.4073 17.1509 39.0564 17.4113L39.9921 11.4847C37.9932 11.1691 35.8671 11.016 33.6203 11.016V17.016ZM39.1428 17.4236C40.8171 17.6383 42.5305 18.0269 44.285 18.5971L46.1395 12.8909C44.0541 12.2131 41.9754 11.7377 39.9057 11.4724L39.1428 17.4236ZM44.3055 18.6037C45.868 19.0991 47.0222 19.819 47.8753 20.7049L52.1972 16.5431C50.5543 14.837 48.4925 13.6369 46.119 12.8843L44.3055 18.6037ZM47.8753 20.7049C48.6481 21.5075 49.0466 22.3959 49.1341 23.4744L55.1144 22.9896C54.9139 20.5161 53.9204 18.3325 52.1972 16.5431L47.8753 20.7049ZM49.1309 23.4316C49.1242 23.3307 49.1354 23.0841 49.2845 22.7983C49.4322 22.5151 49.6211 22.3742 49.688 22.333L52.8325 27.443C53.5234 27.0178 54.1683 26.4088 54.604 25.5737C55.0411 24.7359 55.1723 23.8533 55.1176 23.0324L49.1309 23.4316ZM49.7486 22.2967C49.6972 22.3266 49.5628 22.392 49.2443 22.392V28.392C50.4617 28.392 51.6713 28.1214 52.7719 27.4793L49.7486 22.2967ZM49.2443 22.392C49.1102 22.392 49.0966 22.3755 49.1637 22.396C49.2411 22.4195 49.3966 22.484 49.5638 22.6303L45.6127 27.1457C46.7317 28.1248 48.094 28.392 49.2443 28.392V22.392ZM49.846 22.9125C49.7695 22.825 49.5739 22.5528 49.2988 21.9633L43.8617 24.5007C44.2586 25.3512 44.735 26.183 45.3305 26.8635L49.846 22.9125ZM49.2705 21.9043C46.7126 16.7213 41.2855 14.688 34.6283 14.688V20.688C40.259 20.688 42.7999 22.3507 43.89 24.5596L49.2705 21.9043ZM34.6283 14.688C30.0364 14.688 25.9834 15.6654 22.6785 17.849L25.986 22.855C28.0571 21.4866 30.8681 20.688 34.6283 20.688V14.688ZM22.6577 17.8628C19.1216 20.2417 17.3723 23.8056 17.3723 28.128H23.3723C23.3723 25.6344 24.2629 24.0143 26.0068 22.8412L22.6577 17.8628ZM17.3723 28.128C17.3723 30.732 18.2081 33.0922 19.9 35.0548L24.4445 31.1372C23.7364 30.3158 23.3723 29.364 23.3723 28.128H17.3723ZM19.9344 35.094C21.4858 36.8316 23.4515 38.1348 25.7381 39.0494L27.9664 33.4786C26.413 32.8572 25.2587 32.0484 24.4101 31.098L19.9344 35.094ZM25.7616 39.0587C27.8417 39.8705 30.0812 40.5991 32.476 41.2477L34.0445 35.4563C31.8313 34.8569 29.7988 34.1935 27.9429 33.4693L25.7616 39.0587ZM32.4909 41.2517C34.7827 41.8597 37.0509 42.5378 39.2956 43.286L41.1929 37.5939C38.8296 36.8062 36.4418 36.0923 34.0296 35.4523L32.4909 41.2517ZM39.313 43.2918C41.5093 44.009 43.4701 44.8496 45.2065 45.8046L48.098 40.5474C45.9944 39.3904 43.6832 38.407 41.1755 37.5882L39.313 43.2918ZM45.2338 45.8195C46.7347 46.6248 47.9333 47.7468 48.8603 49.23L53.9482 46.05C52.4752 43.6932 50.5059 41.8392 48.0707 40.5325L45.2338 45.8195ZM48.8786 49.259C49.7149 50.5636 50.2043 52.2329 50.2043 54.408H56.2043C56.2043 51.3031 55.4936 48.4604 53.9299 46.021L48.8786 49.259ZM50.2043 54.408C50.2043 57.0645 48.969 59.493 45.7813 61.7525L49.2512 66.6475C53.6475 63.531 56.2043 59.4314 56.2043 54.408H50.2043ZM45.7666 61.763C42.6436 64.0052 38.5686 65.232 33.3323 65.232V71.232C39.5199 71.232 44.9009 69.7708 49.2659 66.637L45.7666 61.763ZM33.3323 65.232C29.3543 65.232 25.4471 64.3917 21.5878 62.6813L19.1567 68.1667C23.7454 70.2003 28.4782 71.232 33.3323 71.232V65.232ZM21.5878 62.6813C19.6114 61.8054 18.3556 61.0123 17.6383 60.3602C16.9214 59.7084 17.0363 59.4808 17.0363 59.664H11.0363C11.0363 61.8152 12.2071 63.5316 13.6022 64.7998C14.9969 66.0677 16.9091 67.1706 19.1567 68.1667L21.5878 62.6813ZM17.0363 59.664C17.0363 60.0294 16.9181 60.3391 16.7856 60.543C16.672 60.7177 16.5897 60.753 16.6799 60.6906L13.2646 55.7574C12.2099 56.4876 11.0363 57.7667 11.0363 59.664H17.0363ZM16.8014 60.6019C16.8695 60.5495 16.9215 60.5156 16.9568 60.4948C16.992 60.4741 17.0079 60.4681 17.0044 60.4694C17.0006 60.471 16.9772 60.4799 16.9356 60.4884C16.8935 60.497 16.838 60.504 16.7723 60.504V54.504C15.3295 54.504 14.1016 55.1088 13.1431 55.8461L16.8014 60.6019ZM16.7723 60.504C16.7738 60.504 16.7682 60.5041 16.7573 60.5023C16.7463 60.5006 16.7345 60.4977 16.7236 60.494C16.7127 60.4904 16.7071 60.4875 16.7076 60.4878C16.7082 60.4881 16.7176 60.493 16.7357 60.5062L20.2648 55.6538C19.2493 54.9153 18.0609 54.504 16.7723 54.504V60.504ZM16.8896 60.611C17.2115 60.8158 17.6647 61.1667 18.2589 61.7184L22.3416 57.3216C21.5918 56.6253 20.845 56.0162 20.1109 55.549L16.8896 60.611ZM18.2589 61.7184C19.0087 62.4147 19.7555 63.0238 20.4896 63.491L23.7109 58.429C23.389 58.2242 22.9358 57.8733 22.3416 57.3216L18.2589 61.7184ZM20.4983 63.4965C24.6482 66.1175 29.2884 67.416 34.3403 67.416V61.416C30.3681 61.416 26.8483 60.4105 23.7022 58.4235L20.4983 63.4965ZM34.3403 67.416C38.1497 67.416 41.7961 66.2529 45.2363 64.0686L42.0202 59.0034C39.4124 60.6591 36.8668 61.416 34.3403 61.416V67.416ZM45.2646 64.0504C49.0331 61.5979 51.1642 58.0872 51.1642 53.688H45.1642C45.1642 55.8168 44.2714 57.5381 41.9919 59.0216L45.2646 64.0504ZM51.1642 53.688C51.1642 50.6335 49.9892 47.9854 47.7011 45.9665L43.7314 50.4655C44.7073 51.3266 45.1642 52.3265 45.1642 53.688H51.1642ZM47.7375 45.9991C45.6925 44.1345 43.1929 42.8689 40.3373 42.141L38.8552 47.955C40.8956 48.4751 42.476 49.3215 43.695 50.4329L47.7375 45.9991ZM40.3904 42.155C37.9515 41.4855 35.2955 40.7438 32.4221 39.9296L30.7864 45.7024C33.673 46.5202 36.345 47.2665 38.8021 47.941L40.3904 42.155ZM32.4349 39.9333C29.6519 39.1314 27.0685 38.3091 24.6827 37.467L22.6858 43.125C25.196 44.0109 27.8926 44.8686 30.7736 45.6987L32.4349 39.9333ZM24.6827 37.467C22.7188 36.7739 21.1281 35.6806 19.8501 34.1771L15.2784 38.0629C17.2644 40.3994 19.7537 42.0901 22.6858 43.125L24.6827 37.467ZM19.8501 34.1771C18.7025 32.8269 18.1163 31.245 18.1163 29.28H12.1163C12.1163 32.595 13.162 35.5731 15.2784 38.0629L19.8501 34.1771ZM18.1163 29.28C18.1163 27.0077 18.5803 25.2048 19.3887 23.7637L14.1558 20.8282C12.7562 23.3232 12.1163 26.1763 12.1163 29.28H18.1163ZM19.377 23.7844C20.3046 22.1612 21.4605 20.9506 22.8382 20.0805L19.6343 15.0075C17.364 16.4414 15.5439 18.3988 14.1675 20.8076L19.377 23.7844ZM98.3449 15.024L98.1758 18.0192C98.1838 18.0197 98.1919 18.0201 98.1999 18.0205L98.3449 15.024ZM107.561 16.32L110.558 16.4532C110.574 16.0864 110.523 15.7197 110.407 15.3713L107.561 16.32ZM85.8889 66.216L87.6326 68.6572C88.4008 68.1085 88.8659 67.2302 88.888 66.2864L85.8889 66.216ZM81.4249 67.296L78.4256 67.3642C78.4627 68.994 79.7946 70.296 81.4249 70.296V67.296ZM81.3529 59.736L78.3531 59.7013C78.3529 59.7129 78.3529 59.7244 78.3529 59.736L81.3529 59.736ZM81.7129 28.632L84.7127 28.6667C84.7128 28.6551 84.7129 28.6436 84.7129 28.632L81.7129 28.632ZM81.5689 19.2L84.5667 19.0869C84.51 17.5845 83.35 16.3561 81.8533 16.2135L81.5689 19.2ZM70.1209 19.488L70.3316 22.4806C70.3456 22.4796 70.3595 22.4785 70.3735 22.4773L70.1209 19.488ZM61.9609 17.976C61.9609 18.6889 61.6096 19.1505 61.4441 19.3121C61.3244 19.429 61.3288 19.373 61.6673 19.2313C62.3378 18.9506 63.5797 18.6326 65.5675 18.3552C69.4823 17.809 75.5049 17.52 83.7289 17.52V11.52C75.4408 11.52 69.0794 11.807 64.7383 12.4128C62.598 12.7114 60.744 13.1134 59.3505 13.6967C58.6569 13.987 57.8873 14.399 57.2517 15.0199C56.5702 15.6855 55.9609 16.6871 55.9609 17.976H61.9609ZM83.7289 17.52C87.4422 17.52 92.2522 17.6848 98.1758 18.0192L98.514 12.0288C92.5335 11.6912 87.5996 11.52 83.7289 11.52V17.52ZM98.1999 18.0205C101.151 18.1633 103.298 18.3383 104.695 18.5348C105.41 18.6353 105.813 18.7261 105.992 18.7814C106.09 18.8117 105.998 18.7947 105.825 18.6922C105.739 18.6408 105.037 18.2349 104.715 17.2687L110.407 15.3713C110.037 14.2611 109.197 13.7157 108.882 13.5293C108.481 13.2918 108.072 13.1443 107.762 13.0486C107.125 12.8519 106.351 12.7087 105.531 12.5932C103.856 12.3577 101.49 12.1727 98.4899 12.0275L98.1999 18.0205ZM104.564 16.1868C104.56 16.2623 104.551 16.2064 104.612 16.1124C104.668 16.0247 104.698 16.0406 104.565 16.1127C104.218 16.3007 103.341 16.56 101.585 16.56V22.56C103.717 22.56 105.78 22.2793 107.425 21.3873C109.292 20.3749 110.46 18.6452 110.558 16.4532L104.564 16.1868ZM101.585 16.56C100.633 16.56 98.907 16.4526 96.3175 16.2128L95.7643 22.1872C98.3587 22.4274 100.329 22.56 101.585 22.56V16.56ZM96.3175 16.2128C93.6661 15.9673 91.337 15.84 89.3449 15.84V21.84C91.0968 21.84 93.2317 21.9527 95.7643 22.1872L96.3175 16.2128ZM89.3449 15.84C88.3025 15.84 87.1077 15.9423 86.0678 16.4075C85.5122 16.6561 84.8748 17.0642 84.3742 17.7361C83.8469 18.4438 83.6089 19.2616 83.6089 20.064H89.6089C89.6089 20.4584 89.4849 20.9192 89.1855 21.3209C88.913 21.6868 88.6175 21.8399 88.518 21.8845C88.4218 21.9275 88.423 21.9086 88.5904 21.8837C88.7482 21.8601 88.9933 21.84 89.3449 21.84V15.84ZM83.6089 20.064C83.6089 30.3476 83.3696 45.7031 82.8897 66.1456L88.888 66.2864C89.3682 45.8329 89.6089 30.4204 89.6089 20.064H83.6089ZM84.1452 63.7748C83.8662 63.9741 83.1076 64.296 81.4249 64.296V70.296C83.6782 70.296 85.8956 69.8979 87.6326 68.6572L84.1452 63.7748ZM84.4241 67.2278C84.3768 65.1453 84.3529 62.6492 84.3529 59.736H78.3529C78.3529 62.6788 78.377 65.2227 78.4256 67.3642L84.4241 67.2278ZM84.3527 59.7707L84.7127 28.6667L78.7131 28.5973L78.3531 59.7013L84.3527 59.7707ZM84.7129 28.632C84.7129 24.866 84.6647 21.6816 84.5667 19.0869L78.571 19.3131C78.6651 21.8064 78.7129 24.91 78.7129 28.632H84.7129ZM81.8533 16.2135C80.7116 16.1048 79.2861 16.056 77.6089 16.056V22.056C79.1957 22.056 80.4102 22.1032 81.2845 22.1865L81.8533 16.2135ZM77.6089 16.056C75.89 16.056 73.2872 16.2097 69.8683 16.4987L70.3735 22.4773C73.7705 22.1903 76.1598 22.056 77.6089 22.056V16.056ZM69.9101 16.4954C66.5007 16.7355 64.1958 16.848 62.9209 16.848V22.848C64.43 22.848 66.925 22.7205 70.3316 22.4806L69.9101 16.4954ZM62.9209 16.848C62.3713 16.848 61.9563 16.815 61.6553 16.7676C61.3455 16.7187 61.2287 16.6657 61.233 16.6678C61.2451 16.6735 61.4555 16.7759 61.6601 17.0662C61.8841 17.3838 61.9609 17.7273 61.9609 17.976H55.9609C55.9609 18.8487 56.2027 19.7382 56.7566 20.5238C57.2913 21.2821 57.9966 21.7745 58.6687 22.0922C59.9342 22.6904 61.4597 22.848 62.9209 22.848V16.848ZM117.031 16.176L115.385 13.6679C114.757 14.0803 114.306 14.7137 114.122 15.4426L117.031 16.176ZM121.063 15.312L120.01 18.121C120.044 18.134 120.079 18.1463 120.114 18.158L121.063 15.312ZM121.711 16.896L118.752 16.4028C118.75 16.4174 118.747 16.432 118.745 16.4466L121.711 16.896ZM120.127 45.84L117.158 46.2718C117.161 46.2923 117.165 46.3128 117.168 46.3332L120.127 45.84ZM122.215 54.048L119.369 54.9967C119.375 55.0158 119.382 55.0349 119.389 55.054L122.215 54.048ZM126.895 60.96L124.964 63.2561C124.975 63.2648 124.985 63.2733 124.995 63.2819L126.895 60.96ZM145.687 55.848L143.138 54.2665L143.134 54.273L145.687 55.848ZM145.399 15.816L143.447 13.5382C142.409 14.4281 142.103 15.9073 142.705 17.1353L145.399 15.816ZM149.935 14.736L152.398 13.0228C152.028 12.4919 151.497 12.0945 150.884 11.89L149.935 14.736ZM150.079 57.072L152.669 58.5861C152.676 58.5735 152.684 58.5609 152.691 58.5482L150.079 57.072ZM142.879 64.776L144.534 67.2783C144.543 67.2722 144.552 67.266 144.562 67.2598L142.879 64.776ZM125.311 65.712L123.711 68.2498C123.733 68.2632 123.754 68.2764 123.776 68.2893L125.311 65.712ZM120.055 60.528L117.472 62.0542C117.486 62.0774 117.5 62.1005 117.514 62.1233L120.055 60.528ZM116.959 53.184L114.078 54.0196L114.08 54.0278L116.959 53.184ZM118.677 18.6841C119.233 18.3191 119.61 18.1824 119.82 18.1374C119.918 18.1162 119.972 18.117 119.99 18.118C120.006 18.1189 120.009 18.1206 120.01 18.121L122.116 12.503C119.69 11.593 117.31 12.4049 115.385 13.6679L118.677 18.6841ZM120.114 18.158C119.915 18.0917 119.659 17.9651 119.41 17.7388C119.157 17.5089 118.984 17.2413 118.88 16.9879C118.693 16.5302 118.778 16.2488 118.752 16.4028L124.67 17.3892C124.789 16.6792 124.837 15.7018 124.434 14.7161C123.971 13.5856 123.069 12.8182 122.012 12.4659L120.114 18.158ZM118.745 16.4466C117.308 25.9325 116.551 32.6954 116.551 36.552H122.551C122.551 33.2086 123.235 26.8674 124.677 17.3454L118.745 16.4466ZM116.551 36.552C116.551 40.2043 116.748 43.4509 117.158 46.2718L123.096 45.4082C122.738 42.9491 122.551 40.0037 122.551 36.552H116.551ZM117.168 46.3332C117.629 49.1013 118.367 51.9903 119.369 54.9967L125.061 53.0993C124.143 50.3457 123.489 47.7627 123.086 45.3468L117.168 46.3332ZM119.389 55.054C120.559 58.3416 122.409 61.1069 124.964 63.2561L128.826 58.6639C127.158 57.2611 125.887 55.4183 125.041 53.042L119.389 55.054ZM124.995 63.2819C127.702 65.4964 130.962 66.552 134.599 66.552V60.552C132.188 60.552 130.312 59.8796 128.795 58.6381L124.995 63.2819ZM134.599 66.552C140.273 66.552 144.783 63.0289 148.24 57.423L143.134 54.273C140.256 58.9391 137.373 60.552 134.599 60.552V66.552ZM148.236 57.4295C151.798 51.6878 153.511 44.9006 153.511 37.2H147.511C147.511 43.9954 146.008 49.6402 143.138 54.2665L148.236 57.4295ZM153.511 37.2C153.511 29.4184 151.69 21.8413 148.093 14.4967L142.705 17.1353C145.924 23.7107 147.511 30.3896 147.511 37.2H153.511ZM147.352 18.0938C147.723 17.7753 147.983 17.6147 148.134 17.5417C148.282 17.4697 148.245 17.52 148.063 17.52V11.52C146.216 11.52 144.638 12.5174 143.447 13.5382L147.352 18.0938ZM148.063 17.52C148.388 17.52 148.629 17.5346 148.799 17.5542C148.977 17.5747 149.025 17.5949 148.986 17.582L150.884 11.89C149.994 11.5934 148.989 11.52 148.063 11.52V17.52ZM147.472 16.4492C150.868 21.3302 152.695 27.8545 152.695 36.264H158.695C158.695 27.0095 156.682 19.1818 152.398 13.0228L147.472 16.4492ZM152.695 36.264C152.695 42.9686 150.97 49.3989 147.467 55.5958L152.691 58.5482C156.676 51.4971 158.695 44.0554 158.695 36.264H152.695ZM147.489 55.5579C145.89 58.2931 143.799 60.529 141.197 62.2922L144.562 67.2598C147.911 64.991 150.62 62.0909 152.669 58.5861L147.489 55.5579ZM141.224 62.2737C138.692 63.9486 136.14 64.728 133.519 64.728V70.728C137.426 70.728 141.115 69.5394 144.534 67.2783L141.224 62.2737ZM133.519 64.728C130.723 64.728 128.544 64.146 126.847 63.1347L123.776 68.2893C126.59 69.966 129.884 70.728 133.519 70.728V64.728ZM126.911 63.1742C125.056 62.0046 123.636 60.5894 122.596 58.9327L117.514 62.1233C119.066 64.5946 121.151 66.6354 123.711 68.2498L126.911 63.1742ZM122.638 59.0018C121.537 57.1389 120.596 54.9275 119.838 52.3402L114.08 54.0278C114.954 57.0085 116.077 59.6931 117.472 62.0542L122.638 59.0018ZM119.84 52.3484C118.537 47.8555 117.871 42.8848 117.871 37.416H111.871C111.871 43.3712 112.597 48.9125 114.078 54.0196L119.84 52.3484ZM117.871 37.416C117.871 29.1181 118.58 22.3028 119.94 16.9094L114.122 15.4426C112.602 21.4732 111.871 28.8179 111.871 37.416H117.871ZM181.871 66.432V63.432C181.834 63.432 181.798 63.4327 181.762 63.434L181.871 66.432ZM175.895 66.648V69.648C175.931 69.648 175.967 69.6473 176.003 69.646L175.895 66.648ZM169.343 65.28L171.355 63.0554C171.296 63.0019 171.235 62.9508 171.172 62.9021L169.343 65.28ZM168.983 41.952L171.98 42.083L171.98 42.0823L168.983 41.952ZM175.031 16.608L174.093 13.7582L174.093 13.7582L175.031 16.608ZM206.207 21.432L204.251 23.7068L204.261 23.7157L206.207 21.432ZM212.111 48.504L209.337 47.3595C209.332 47.3721 209.327 47.3848 209.322 47.3975L212.111 48.504ZM207.215 56.352L209.383 58.4246C209.391 58.4166 209.399 58.4087 209.406 58.4007L207.215 56.352ZM200.015 61.896L201.466 64.5217C201.471 64.5185 201.477 64.5152 201.483 64.512L200.015 61.896ZM202.535 24.816L200.401 26.9252C200.409 26.9333 200.417 26.9414 200.425 26.9494L202.535 24.816ZM174.599 21.72L173.303 19.0141C172.261 19.5128 171.599 20.5651 171.599 21.72H174.599ZM174.023 39.216L177.019 39.3649L177.019 39.364L174.023 39.216ZM173.519 61.536L170.521 61.6513C170.574 63.041 171.576 64.2117 172.94 64.4797L173.519 61.536ZM201.311 56.64L199.507 54.2427L199.496 54.2511L201.311 56.64ZM181.762 63.434L175.786 63.65L176.003 69.646L181.979 69.43L181.762 63.434ZM175.895 63.648C174.328 63.648 173.166 63.5398 172.35 63.3693C171.48 63.1878 171.287 62.9935 171.355 63.0554L167.33 67.5046C168.406 68.4785 169.809 68.9682 171.123 69.2427C172.491 69.5282 174.101 69.648 175.895 69.648V63.648ZM171.172 62.9021C171.189 62.9156 171.223 62.9447 171.261 62.9922C171.3 63.0403 171.335 63.0954 171.362 63.1527C171.417 63.273 171.407 63.3316 171.407 63.264H165.407C165.407 64.955 166.072 66.5492 167.513 67.6579L171.172 62.9021ZM171.407 63.264C171.407 57.9019 171.597 50.8465 171.98 42.083L165.985 41.821C165.6 50.6255 165.407 57.7781 165.407 63.264H171.407ZM171.98 42.0823C172.364 33.2354 172.559 26.3208 172.559 21.36H166.559C166.559 26.1912 166.369 33.0046 165.985 41.8217L171.98 42.0823ZM172.559 21.36C172.559 21.3518 172.556 21.3528 172.569 21.3264C172.59 21.2859 172.667 21.1576 172.894 20.9611C173.38 20.539 174.325 19.9982 175.968 19.4578L174.093 13.7582C172.088 14.4178 170.297 15.269 168.959 16.4309C167.554 17.6517 166.559 19.3129 166.559 21.36H172.559ZM175.968 19.4578C179.288 18.3656 182.881 17.808 186.767 17.808V11.808C182.3 11.808 178.069 12.4504 174.093 13.7582L175.968 19.4578ZM186.767 17.808C193.991 17.808 199.742 19.8302 204.251 23.7068L208.162 19.1572C202.399 14.2018 195.19 11.808 186.767 11.808V17.808ZM204.261 23.7157C208.749 27.5385 210.983 32.4266 210.983 38.64H216.983C216.983 30.7414 214.032 24.1575 208.152 19.1483L204.261 23.7157ZM210.983 38.64C210.983 41.8333 210.423 44.7286 209.337 47.3595L214.884 49.6485C216.294 46.2314 216.983 42.5507 216.983 38.64H210.983ZM209.322 47.3975C208.25 50.0997 206.812 52.3896 205.023 54.3033L209.406 58.4007C211.745 55.8984 213.571 52.9563 214.899 49.6105L209.322 47.3975ZM205.046 54.2794C203.197 56.214 201.036 57.8822 198.546 59.28L201.483 64.512C204.465 62.8378 207.104 60.81 209.383 58.4246L205.046 54.2794ZM198.563 59.2703C193.562 62.0341 188.018 63.432 181.871 63.432V69.432C188.971 69.432 195.523 67.8059 201.466 64.5217L198.563 59.2703ZM211.871 40.368C211.871 33.4124 209.464 27.4483 204.644 22.6826L200.425 26.9494C204.053 30.5357 205.871 34.9396 205.871 40.368H211.871ZM204.668 22.7068C199.857 17.8403 193.628 15.48 186.263 15.48V21.48C192.241 21.48 196.86 23.3437 200.401 26.9252L204.668 22.7068ZM186.263 15.48C182.375 15.48 178.025 16.7538 173.303 19.0141L175.894 24.4259C180.196 22.3662 183.622 21.48 186.263 21.48V15.48ZM171.599 21.72C171.599 25.5312 171.41 31.3029 171.026 39.068L177.019 39.364C177.403 31.5771 177.599 25.6848 177.599 21.72H171.599ZM171.026 39.0671C170.642 46.7908 170.447 52.212 170.447 55.272H176.447C176.447 52.38 176.635 47.0972 177.019 39.3649L171.026 39.0671ZM170.447 55.272C170.447 58.2013 170.47 60.3402 170.521 61.6513L176.516 61.4207C176.471 60.2358 176.447 58.1987 176.447 55.272H170.447ZM172.94 64.4797C175.84 65.0494 178.915 65.328 182.159 65.328V59.328C179.258 59.328 176.573 59.0786 174.097 58.5923L172.94 64.4797ZM182.159 65.328C190.429 65.328 197.496 63.3046 203.125 59.0289L199.496 54.2511C195.141 57.5594 189.44 59.328 182.159 59.328V65.328ZM203.114 59.0373C209.004 54.6055 211.871 48.2382 211.871 40.368H205.871C205.871 46.6098 203.697 51.0905 199.507 54.2427L203.114 59.0373ZM232.691 15.312L235.69 15.3784C235.716 14.2184 235.07 13.1476 234.032 12.6287L232.691 15.312ZM231.899 66.144L234.087 68.1958C234.606 67.6428 234.896 66.9139 234.899 66.1558L231.899 66.144ZM228.587 66.936L226.948 69.4488C226.964 69.4594 226.98 69.4698 226.997 69.48L228.587 66.936ZM226.931 62.904L223.931 62.8915V62.904H226.931ZM227.435 22.368L230.429 22.5506L230.429 22.5506L227.435 22.368ZM229.691 15.2456C229.211 36.9482 228.947 53.9132 228.899 66.1322L234.899 66.1558C234.947 53.9908 235.21 37.0678 235.69 15.3784L229.691 15.2456ZM229.71 64.0922C229.597 64.2128 229.507 64.297 229.44 64.3533C229.372 64.41 229.34 64.4291 229.343 64.4271C229.343 64.4271 229.563 64.296 229.955 64.296V70.296C231.828 70.296 233.23 69.1104 234.087 68.1958L229.71 64.0922ZM229.955 64.296C229.918 64.296 229.931 64.2919 229.98 64.3048C230.032 64.3184 230.102 64.3455 230.177 64.392L226.997 69.48C227.932 70.0646 228.959 70.296 229.955 70.296V64.296ZM230.225 64.4232C230.216 64.4172 230.211 64.413 230.202 64.4016C230.191 64.3882 230.159 64.3446 230.12 64.2482C230.035 64.0415 229.931 63.6273 229.931 62.904H223.931C223.931 65.3534 224.629 67.9364 226.948 69.4488L230.225 64.4232ZM229.931 62.9165C230.027 39.7763 230.196 26.3781 230.429 22.5506L224.44 22.1854C224.194 26.2299 224.026 39.8557 223.931 62.8915L229.931 62.9165ZM230.429 22.5506C230.547 20.6215 230.69 19.1763 230.848 18.1739C230.927 17.6703 231.002 17.338 231.059 17.1401C231.138 16.8681 231.126 17.0539 230.893 17.3571L226.137 13.6989C225.664 14.3141 225.427 15.0189 225.295 15.4729C225.143 16.001 225.022 16.6017 224.921 17.2381C224.72 18.5157 224.563 20.1785 224.44 22.1854L230.429 22.5506ZM230.893 17.3571C230.927 17.3122 230.884 17.3836 230.736 17.4639C230.573 17.5518 230.392 17.592 230.243 17.592V11.592C228.473 11.592 227.075 12.4794 226.137 13.6989L230.893 17.3571ZM230.243 17.592C230.228 17.592 230.31 17.5906 230.512 17.6501C230.712 17.7089 230.989 17.8152 231.349 17.9953L234.032 12.6287C232.878 12.0515 231.578 11.592 230.243 11.592V17.592ZM289.077 22.44L290.906 20.0621L290.905 20.0613L289.077 22.44ZM295.053 30L292.345 31.2914C292.353 31.3082 292.361 31.325 292.37 31.3416L295.053 30ZM294.837 52.392L297.555 53.6607L297.555 53.6607L294.837 52.392ZM288.285 60.96L290.134 63.3225L290.138 63.319L288.285 60.96ZM252.789 60.96L250.759 63.1687C250.763 63.1724 250.767 63.1761 250.771 63.1798L252.789 60.96ZM247.749 31.44L244.98 30.2862C244.975 30.2971 244.97 30.3081 244.966 30.3192L247.749 31.44ZM253.509 23.088L255.491 25.3401L255.497 25.335L253.509 23.088ZM255.669 58.08L253.492 60.144C253.496 60.1489 253.501 60.1539 253.506 60.1588L255.669 58.08ZM286.053 57.432L283.919 55.323L283.919 55.3231L286.053 57.432ZM286.053 26.4L284.023 28.6093L284.023 28.6093L286.053 26.4ZM256.245 26.544L258.353 28.6785L258.353 28.6783L256.245 26.544ZM287.248 24.8179C289.334 26.4226 291.04 28.5553 292.345 31.2914L297.761 28.7086C296.09 25.2047 293.812 22.2974 290.906 20.0621L287.248 24.8179ZM292.37 31.3416C293.659 33.9212 294.357 37.0447 294.357 40.8H300.357C300.357 36.2993 299.518 32.2228 297.736 28.6584L292.37 31.3416ZM294.357 40.8C294.357 44.5072 293.606 47.9362 292.118 51.1233L297.555 53.6607C299.428 49.6478 300.357 45.3488 300.357 40.8H294.357ZM292.118 51.1233C290.605 54.3662 288.694 56.8234 286.431 58.601L290.138 63.319C293.252 60.8726 295.709 57.6178 297.555 53.6607L292.118 51.1233ZM286.436 58.5975C281.419 62.5236 275.944 64.44 269.925 64.44V70.44C277.345 70.44 284.11 68.0364 290.134 63.3225L286.436 58.5975ZM269.925 64.44C263.967 64.44 258.983 62.5371 254.807 58.7402L250.771 63.1798C256.098 68.0229 262.538 70.44 269.925 70.44V64.44ZM254.819 58.7513C250.79 55.0478 248.661 49.9544 248.661 43.104H242.661C242.661 51.3256 245.284 58.1362 250.759 63.1687L254.819 58.7513ZM248.661 43.104C248.661 39.1076 249.304 35.6085 250.532 32.5608L244.966 30.3192C243.41 34.1835 242.661 38.4604 242.661 43.104H248.661ZM250.518 32.5938C251.812 29.4873 253.487 27.1032 255.491 25.3401L251.527 20.8359C248.73 23.2968 246.565 26.4807 244.98 30.2862L250.518 32.5938ZM255.497 25.335C259.927 21.4161 265.119 19.464 271.221 19.464V13.464C263.691 13.464 257.075 15.9279 251.521 20.841L255.497 25.335ZM271.221 19.464C277.299 19.464 282.605 21.2495 287.249 24.8187L290.905 20.0613C285.181 15.6625 278.582 13.464 271.221 13.464V19.464ZM247.413 43.248C247.413 50.0328 249.35 55.7754 253.492 60.144L257.846 56.016C254.98 52.9926 253.413 48.8472 253.413 43.248H247.413ZM253.506 60.1588C257.706 64.5291 263.236 66.624 269.781 66.624V60.624C264.614 60.624 260.736 59.0229 257.832 56.0012L253.506 60.1588ZM269.781 66.624C277.206 66.624 283.449 64.334 288.187 59.5409L283.919 55.3231C280.497 58.786 275.891 60.624 269.781 60.624V66.624ZM288.186 59.541C292.916 54.7563 295.245 48.7208 295.245 41.664H289.245C289.245 47.2792 287.446 51.7557 283.919 55.323L288.186 59.541ZM295.245 41.664C295.245 34.5688 292.918 28.6324 288.082 24.1907L284.023 28.6093C287.444 31.7516 289.245 35.9912 289.245 41.664H295.245ZM288.082 24.1907C283.369 19.8612 277.617 17.712 271.005 17.712V23.712C276.201 23.712 280.48 25.3548 284.023 28.6093L288.082 24.1907ZM271.005 17.712C264.37 17.712 258.674 19.9272 254.137 24.4097L258.353 28.6783C261.687 25.3848 265.831 23.712 271.005 23.712V17.712ZM254.137 24.4095C249.507 28.9825 247.413 35.428 247.413 43.248H253.413C253.413 36.476 255.207 31.7855 258.353 28.6785L254.137 24.4095Z" fill="black"/>
</svg>
